<svg width="101" height="25" viewBox="0 0 101 25" fill="none" xmlns="http://www.w3.org/2000/svg">
<path d="M0.401875 22.02H2.50188V5.04H0.401875V3.06H10.1819C11.6219 3.06 12.9519 3.3 14.1719 3.78C15.4119 4.24 16.4819 4.92 17.3819 5.82C18.2819 6.7 18.9819 7.79 19.4819 9.09C20.0019 10.39 20.2619 11.87 20.2619 13.53C20.2619 15.19 20.0019 16.67 19.4819 17.97C18.9819 19.27 18.2819 20.37 17.3819 21.27C16.4819 22.15 15.4119 22.83 14.1719 23.31C12.9519 23.77 11.6219 24 10.1819 24H0.401875V22.02ZM7.36188 21.84H9.31188C10.3119 21.84 11.1619 21.74 11.8619 21.54C12.5819 21.34 13.1619 21.03 13.6019 20.61C14.0619 20.17 14.3919 19.6 14.5919 18.9C14.8119 18.18 14.9219 17.31 14.9219 16.29V10.77C14.9219 9.75 14.8119 8.89 14.5919 8.19C14.3919 7.47 14.0619 6.9 13.6019 6.48C13.1619 6.04 12.5819 5.72 11.8619 5.52C11.1619 5.32 10.3119 5.22 9.31188 5.22H7.36188V21.84ZM26.9784 6.21C26.1384 6.21 25.4784 5.98 24.9984 5.52C24.5384 5.06 24.3084 4.44 24.3084 3.66V3.51C24.3084 2.73 24.5384 2.11 24.9984 1.65C25.4784 1.19 26.1384 0.96 26.9784 0.96C27.8184 0.96 28.4684 1.19 28.9284 1.65C29.4084 2.11 29.6484 2.73 29.6484 3.51V3.66C29.6484 4.44 29.4084 5.06 28.9284 5.52C28.4684 5.98 27.8184 6.21 26.9784 6.21ZM22.9284 22.02H24.7284V11.31L22.9284 10.92V9.21L29.2884 7.92V22.02H31.0884V24H22.9284V22.02ZM32.9772 22.02H34.7772V11.31L32.9772 10.92V9.21L39.2472 7.92V10.89H39.3972C39.6772 10.09 40.1572 9.4 40.8372 8.82C41.5372 8.22 42.5072 7.92 43.7472 7.92C45.1072 7.92 46.1672 8.17 46.9272 8.67C47.7072 9.17 48.2372 9.91 48.5172 10.89H48.6372C48.9572 10.11 49.4972 9.42 50.2572 8.82C51.0172 8.22 52.0272 7.92 53.2872 7.92C55.1672 7.92 56.4872 8.4 57.2472 9.36C58.0272 10.32 58.4172 11.77 58.4172 13.71V22.02H60.2172V24H52.2972V22.02H53.8572V13.89C53.8572 12.83 53.6772 12.08 53.3172 11.64C52.9772 11.18 52.3872 10.95 51.5472 10.95C51.2072 10.95 50.8772 11 50.5572 11.1C50.2372 11.18 49.9472 11.32 49.6872 11.52C49.4472 11.7 49.2472 11.94 49.0872 12.24C48.9472 12.54 48.8772 12.89 48.8772 13.29V22.02H50.4372V24H42.7572V22.02H44.3172V13.89C44.3172 12.83 44.1372 12.08 43.7772 11.64C43.4372 11.18 42.8572 10.95 42.0372 10.95C41.3372 10.95 40.7072 11.14 40.1472 11.52C39.6072 11.88 39.3372 12.47 39.3372 13.29V22.02H40.8972V24H32.9772V22.02ZM66.8383 24.36C65.1383 24.36 63.8983 23.97 63.1183 23.19C62.3583 22.39 61.9783 21.28 61.9783 19.86C61.9783 16.76 64.2683 15.21 68.8483 15.21H70.9483V13.5C70.9483 12.28 70.7183 11.36 70.2583 10.74C69.7983 10.12 68.9983 9.81 67.8583 9.81C67.4383 9.81 67.0783 9.84 66.7783 9.9C66.4783 9.96 66.2183 10.04 65.9983 10.14V10.29C66.1983 10.39 66.3883 10.57 66.5683 10.83C66.7683 11.09 66.8683 11.44 66.8683 11.88C66.8683 12.48 66.6783 12.99 66.2983 13.41C65.9183 13.81 65.3483 14.01 64.5883 14.01C63.9883 14.01 63.4883 13.8 63.0883 13.38C62.6883 12.96 62.4883 12.43 62.4883 11.79C62.4883 11.31 62.6283 10.84 62.9083 10.38C63.1883 9.9 63.6083 9.48 64.1683 9.12C64.7283 8.76 65.4183 8.47 66.2383 8.25C67.0783 8.03 68.0383 7.92 69.1183 7.92C71.2983 7.92 72.9083 8.39 73.9483 9.33C74.9883 10.25 75.5083 11.56 75.5083 13.26V22.02H77.3083V23.73C76.9683 23.93 76.5283 24.08 75.9883 24.18C75.4483 24.3 74.8883 24.36 74.3083 24.36C73.2083 24.36 72.4283 24.11 71.9683 23.61C71.5283 23.09 71.3083 22.45 71.3083 21.69V21.63H71.1283C70.9883 21.97 70.8083 22.3 70.5883 22.62C70.3883 22.94 70.1183 23.23 69.7783 23.49C69.4583 23.75 69.0583 23.96 68.5783 24.12C68.0983 24.28 67.5183 24.36 66.8383 24.36ZM68.5483 21.66C69.2883 21.66 69.8683 21.49 70.2883 21.15C70.7283 20.81 70.9483 20.22 70.9483 19.38V17.01H69.3283C68.3683 17.01 67.6483 17.21 67.1683 17.61C66.7083 18.01 66.4783 18.58 66.4783 19.32V19.8C66.4783 20.44 66.6683 20.91 67.0483 21.21C67.4283 21.51 67.9283 21.66 68.5483 21.66ZM86.047 24.36C84.947 24.36 84.107 24.16 83.527 23.76C82.947 23.34 82.577 22.88 82.417 22.38H82.297V24H79.357V19.32H82.297V19.8C82.297 20.58 82.537 21.17 83.017 21.57C83.497 21.97 84.277 22.17 85.357 22.17C86.317 22.17 87.017 22.02 87.457 21.72C87.897 21.42 88.117 20.96 88.117 20.34C88.117 19.84 87.957 19.46 87.637 19.2C87.317 18.92 86.787 18.67 86.047 18.45L84.637 18.06C82.897 17.58 81.607 16.94 80.767 16.14C79.947 15.32 79.537 14.22 79.537 12.84C79.537 11.26 80.057 10.05 81.097 9.21C82.137 8.35 83.507 7.92 85.207 7.92C86.267 7.92 87.077 8.12 87.637 8.52C88.197 8.92 88.557 9.37 88.717 9.87H88.837V8.28H91.777V12.96H88.837V12.42C88.837 11.66 88.597 11.09 88.117 10.71C87.657 10.31 86.897 10.11 85.837 10.11C84.317 10.11 83.557 10.66 83.557 11.76C83.557 12.28 83.707 12.7 84.007 13.02C84.327 13.34 84.897 13.6 85.717 13.8L87.007 14.13C87.847 14.35 88.587 14.6 89.227 14.88C89.867 15.16 90.397 15.5 90.817 15.9C91.257 16.28 91.587 16.75 91.807 17.31C92.027 17.85 92.137 18.5 92.137 19.26C92.137 20.92 91.577 22.19 90.457 23.07C89.337 23.93 87.867 24.36 86.047 24.36ZM97.5913 24.36C96.7113 24.36 96.0413 24.11 95.5813 23.61C95.1213 23.09 94.8913 22.47 94.8913 21.75V21.63C94.8913 20.91 95.1213 20.3 95.5813 19.8C96.0413 19.28 96.7113 19.02 97.5913 19.02C98.4713 19.02 99.1413 19.28 99.6013 19.8C100.061 20.3 100.291 20.91 100.291 21.63V21.75C100.291 22.47 100.061 23.09 99.6013 23.61C99.1413 24.11 98.4713 24.36 97.5913 24.36Z" fill="white"/>
</svg>
